<?xml version="1.0" encoding="UTF-8"?>
<svg version="1.1" xmlns="http://www.w3.org/2000/svg" width="512" height="512">
<path d="M0 0 C0.8577301 0.00149048 1.71546021 0.00298096 2.59918213 0.0045166 C15.57348236 0.0450169 28.14460784 0.62387826 40.875 3.3125 C41.94089355 3.52132813 41.94089355 3.52132813 43.02832031 3.734375 C70.97602129 9.25490853 97.70330588 20.75561197 120.875 37.3125 C121.94065186 38.07143555 121.94065186 38.07143555 123.02783203 38.84570312 C125.19655376 40.40312998 127.35177049 41.97694358 129.5 43.5625 C130.45918335 44.26922852 130.45918335 44.26922852 131.43774414 44.99023438 C135.38400966 47.97530348 138.88154477 51.20845257 142.33447266 54.75048828 C144.05255369 56.49252987 145.86273367 58.06905376 147.75 59.625 C184.721606 91.7895903 207.11626349 145.26242762 210.875 193.3125 C211.92465153 212.96831088 211.80092317 232.97397698 207.875 252.3125 C207.70339355 253.17117676 207.53178711 254.02985352 207.35498047 254.91455078 C197.50744234 302.70899188 172.86338862 344.93542404 140.875 381.3125 C140.10800781 382.19164062 139.34101563 383.07078125 138.55078125 383.9765625 C132.02016244 391.2748708 125.09985545 398.19164513 118.1875 405.125 C117.69004272 405.62513611 117.19258545 406.12527222 116.68005371 406.64056396 C110.92610682 412.41797411 105.09897383 418.04005014 98.875 423.3125 C97.8653501 424.18948825 96.85620133 425.06705392 95.84765625 425.9453125 C87.11851344 433.42073949 78.08683204 440.44279711 68.875 447.3125 C68.16746582 447.84101563 67.45993164 448.36953125 66.73095703 448.9140625 C36.87314806 471.11094132 4.68880338 490.39453686 -28.8125 506.5625 C-29.79919678 507.04090332 -30.78589355 507.51930664 -31.80249023 508.01220703 C-33.17449585 508.66358643 -33.17449585 508.66358643 -34.57421875 509.328125 C-35.38205811 509.71258789 -36.18989746 510.09705078 -37.0222168 510.49316406 C-39.125 511.3125 -39.125 511.3125 -42.125 511.3125 C-42.13046844 510.03369209 -42.13046844 510.03369209 -42.13604736 508.72904968 C-42.17408021 500.65308477 -42.23110476 492.57751744 -42.30890274 484.50183392 C-42.34823486 480.35106119 -42.38049259 476.20049609 -42.39599609 472.04956055 C-42.41125762 468.03572798 -42.44586829 464.02246674 -42.49330902 460.00889015 C-42.50802579 458.485726 -42.51603538 456.96248023 -42.51688385 455.43924522 C-42.53073593 443.02852035 -44.01205394 431.8894002 -52.83178711 422.49438477 C-59.16777109 416.40344297 -65.85410966 413.51895205 -74 410.4375 C-76.59914508 409.41435463 -79.19086676 408.37323017 -81.78125 407.328125 C-82.41702972 407.07267914 -83.05280945 406.81723328 -83.70785522 406.55404663 C-105.03995069 397.9051893 -123.74990269 385.00547685 -140.6796875 369.53515625 C-143.02651662 367.40201605 -145.41534586 365.32617927 -147.8125 363.25 C-151.97077221 359.54971931 -155.56400331 355.58122615 -159.125 351.3125 C-160.26582031 350.00345703 -160.26582031 350.00345703 -161.4296875 348.66796875 C-190.5274846 314.81118615 -210.07757983 268.2125788 -210.328125 223.30078125 C-210.33518463 222.45871124 -210.34224426 221.61664124 -210.34951782 220.74905396 C-210.57573698 185.8361658 -210.57573698 185.8361658 -207.125 170.3125 C-206.92632324 169.37809082 -206.72764648 168.44368164 -206.52294922 167.48095703 C-202.09109764 147.02804498 -195.19369361 127.67066213 -185.125 109.3125 C-184.74085938 108.61141113 -184.35671875 107.91032227 -183.9609375 107.18798828 C-178.44508582 97.23943805 -172.37805994 88.07096218 -165.125 79.3125 C-164.66367676 78.74966309 -164.20235352 78.18682617 -163.72705078 77.60693359 C-152.4765255 63.9409552 -140.4025936 51.8066536 -126.125 41.3125 C-125.06539063 40.53132813 -124.00578125 39.75015625 -122.9140625 38.9453125 C-86.88511235 13.23576536 -44.1821098 -0.19014085 0 0 Z " fill="#EAEAEA" transform="translate(259.125,0.6875)"/>
<path d="M0 0 C0 57.42 0 114.84 0 174 C57.75 174 115.5 174 175 174 C175 193.73966942 175 193.73966942 173.25 203.625 C173.06808105 204.69548584 172.88616211 205.76597168 172.69873047 206.86889648 C164.40576614 254.18315588 137.7335633 295.39029521 98.67211914 323.1940918 C82.21366451 334.58705123 64.16986818 342.42502786 45 348 C43.73373779 348.39082764 43.73373779 348.39082764 42.44189453 348.78955078 C36.59582522 350.5821811 30.64929246 351.69739911 24.625 352.6875 C23.89039551 352.81898438 23.15579102 352.95046875 22.39892578 353.0859375 C12.50797971 354.60856607 3.26027863 354 -7 354 C-7 296.91 -7 239.82 -7 181 C-63.76 181 -120.52 181 -179 181 C-179 160.10841997 -179 160.10841997 -177.75 152.4375 C-177.61505127 151.56456299 -177.48010254 150.69162598 -177.34106445 149.79223633 C-169.83353341 103.04988017 -144.4111507 61.00953985 -105.95874023 33.10961914 C-73.93867756 10.45523485 -39.07925613 0 0 0 Z " fill="#00E812" transform="translate(261,34)"/>
<path d="M0 0 C9.05914984 0 16.74808271 0.09465575 25.4375 1.75 C26.42758057 1.93191895 27.41766113 2.11383789 28.43774414 2.30126953 C76.29546231 11.32985183 117.69649748 38.08268355 145.45703125 78.1484375 C157.78897653 96.48727949 166.17046037 116.48659621 171 138 C171.15839355 138.70205566 171.31678711 139.40411133 171.47998047 140.12744141 C174.03217011 151.65212981 175 162.12776216 175 174 C117.25 174 59.5 174 0 174 C0 116.58 0 59.16 0 0 Z " fill="#FDF523" transform="translate(261,34)"/>
<path d="M0 0 C0 57.42 0 114.84 0 174 C-56.76 174 -113.52 174 -172 174 C-172 166.66254095 -171.83526951 160.03285507 -170.75 152.875 C-170.61505127 151.97048096 -170.48010254 151.06596191 -170.34106445 150.1340332 C-163.20312873 104.10749126 -138.35208076 62.40410427 -100.875 34.5 C-71.30895132 13.04775803 -36.73258008 0 0 0 Z " fill="#0093FE" transform="translate(254,34)"/>
<path d="M0 0 C56.76 0 113.52 0 172 0 C172 57.09 172 114.18 172 173 C125.2409874 173 82.19749001 151.87491305 49.33984375 119.4296875 C28.38262578 98.22464489 14.16992052 71.48660434 6 43 C5.7215625 42.05511719 5.443125 41.11023438 5.15625 40.13671875 C3.408951 33.61554928 2.296543 27.04599153 1.3125 20.375 C1.18101563 19.50447998 1.04953125 18.63395996 0.9140625 17.73706055 C0.79417969 16.88281494 0.67429687 16.02856934 0.55078125 15.1484375 C0.44419189 14.39739746 0.33760254 13.64635742 0.2277832 12.87255859 C-0.11145385 8.59446304 0 4.29152459 0 0 Z " fill="#FE1E1E" transform="translate(82,215)"/>
<path d="M0 0 C0.8577301 0.00149048 1.71546021 0.00298096 2.59918213 0.0045166 C15.57348236 0.0450169 28.14460784 0.62387826 40.875 3.3125 C41.94089355 3.52132813 41.94089355 3.52132813 43.02832031 3.734375 C70.97602129 9.25490853 97.70330588 20.75561197 120.875 37.3125 C121.94065186 38.07143555 121.94065186 38.07143555 123.02783203 38.84570312 C125.19655376 40.40312998 127.35177049 41.97694358 129.5 43.5625 C130.45918335 44.26922852 130.45918335 44.26922852 131.43774414 44.99023438 C135.38400966 47.97530348 138.88154477 51.20845257 142.33447266 54.75048828 C144.05255369 56.49252987 145.86273367 58.06905376 147.75 59.625 C184.721606 91.7895903 207.11626349 145.26242762 210.875 193.3125 C211.92465153 212.96831088 211.80092317 232.97397698 207.875 252.3125 C207.70339355 253.17117676 207.53178711 254.02985352 207.35498047 254.91455078 C197.50744234 302.70899188 172.86338862 344.93542404 140.875 381.3125 C140.10800781 382.19164062 139.34101563 383.07078125 138.55078125 383.9765625 C132.02016244 391.2748708 125.09985545 398.19164513 118.1875 405.125 C117.69004272 405.62513611 117.19258545 406.12527222 116.68005371 406.64056396 C110.92610682 412.41797411 105.09897383 418.04005014 98.875 423.3125 C97.8653501 424.18948825 96.85620133 425.06705392 95.84765625 425.9453125 C87.11851344 433.42073949 78.08683204 440.44279711 68.875 447.3125 C68.16746582 447.84101563 67.45993164 448.36953125 66.73095703 448.9140625 C36.87314806 471.11094132 4.68880338 490.39453686 -28.8125 506.5625 C-29.79919678 507.04090332 -30.78589355 507.51930664 -31.80249023 508.01220703 C-33.17449585 508.66358643 -33.17449585 508.66358643 -34.57421875 509.328125 C-35.38205811 509.71258789 -36.18989746 510.09705078 -37.0222168 510.49316406 C-39.125 511.3125 -39.125 511.3125 -42.125 511.3125 C-42.13046844 510.03369209 -42.13046844 510.03369209 -42.13604736 508.72904968 C-42.17408021 500.65308477 -42.23110476 492.57751744 -42.30890274 484.50183392 C-42.34823486 480.35106119 -42.38049259 476.20049609 -42.39599609 472.04956055 C-42.41125762 468.03572798 -42.44586829 464.02246674 -42.49330902 460.00889015 C-42.50802579 458.485726 -42.51603538 456.96248023 -42.51688385 455.43924522 C-42.53073593 443.02852035 -44.01205394 431.8894002 -52.83178711 422.49438477 C-59.16777109 416.40344297 -65.85410966 413.51895205 -74 410.4375 C-76.59914508 409.41435463 -79.19086676 408.37323017 -81.78125 407.328125 C-82.41702972 407.07267914 -83.05280945 406.81723328 -83.70785522 406.55404663 C-105.03995069 397.9051893 -123.74990269 385.00547685 -140.6796875 369.53515625 C-143.02651662 367.40201605 -145.41534586 365.32617927 -147.8125 363.25 C-151.97077221 359.54971931 -155.56400331 355.58122615 -159.125 351.3125 C-160.26582031 350.00345703 -160.26582031 350.00345703 -161.4296875 348.66796875 C-190.5274846 314.81118615 -210.07757983 268.2125788 -210.328125 223.30078125 C-210.33518463 222.45871124 -210.34224426 221.61664124 -210.34951782 220.74905396 C-210.57573698 185.8361658 -210.57573698 185.8361658 -207.125 170.3125 C-206.92632324 169.37809082 -206.72764648 168.44368164 -206.52294922 167.48095703 C-202.09109764 147.02804498 -195.19369361 127.67066213 -185.125 109.3125 C-184.74085938 108.61141113 -184.35671875 107.91032227 -183.9609375 107.18798828 C-178.44508582 97.23943805 -172.37805994 88.07096218 -165.125 79.3125 C-164.66367676 78.74966309 -164.20235352 78.18682617 -163.72705078 77.60693359 C-152.4765255 63.9409552 -140.4025936 51.8066536 -126.125 41.3125 C-125.06539063 40.53132813 -124.00578125 39.75015625 -122.9140625 38.9453125 C-86.88511235 13.23576536 -44.1821098 -0.19014085 0 0 Z M-41.125 8.3125 C-42.48987549 8.58537842 -42.48987549 8.58537842 -43.88232422 8.86376953 C-79.40301918 16.03196749 -111.19654409 33.31346381 -138.125 57.3125 C-138.91994873 58.01487793 -138.91994873 58.01487793 -139.73095703 58.73144531 C-155.02608829 72.28502886 -168.15867967 88.43363648 -178.125 106.3125 C-178.75486816 107.43301758 -178.75486816 107.43301758 -179.39746094 108.57617188 C-205.51288176 155.4690141 -213.34227527 210.89918105 -200.3125 263.1875 C-183.79872817 319.79696685 -149.41293005 366.28547767 -97.46313477 395.15087891 C-87.81938823 400.33849237 -77.79792813 404.44722809 -67.55102539 408.29516602 C-55.34367196 413.01399761 -46.38482237 419.7382228 -40.96014404 431.93060303 C-38.02446465 440.12039856 -37.52370293 447.61257524 -37.515625 456.265625 C-37.50060308 457.66096882 -37.4838677 459.05629513 -37.46551514 460.45159912 C-37.42227798 464.08136928 -37.40194111 467.71089989 -37.38677979 471.34088135 C-37.36704897 475.06203122 -37.32509846 478.78292816 -37.28515625 482.50390625 C-37.21032861 489.77336875 -37.15975238 497.04272353 -37.125 504.3125 C-33.67057429 503.66364735 -30.82495025 502.8585542 -27.66796875 501.30078125 C-26.81509277 500.87998291 -25.9622168 500.45918457 -25.08349609 500.02563477 C-23.71185303 499.33232056 -23.71185303 499.33232056 -22.3125 498.625 C-21.34908691 498.14023193 -20.38567383 497.65546387 -19.39306641 497.15600586 C-9.0090383 491.85521472 1.02356706 485.98679009 11.02783203 480.00732422 C13.68444637 478.42593023 16.35289536 476.8673894 19.02734375 475.31640625 C43.72862525 460.90061639 67.04099667 443.77215736 88.875 425.3125 C89.38482422 424.88614258 89.89464844 424.45978516 90.41992188 424.02050781 C106.83695318 410.28163768 123.03707695 395.6849479 136.875 379.3125 C137.68324219 378.38179688 138.49148438 377.45109375 139.32421875 376.4921875 C151.05172662 362.92799508 161.46136629 348.56919504 170.875 333.3125 C171.33261719 332.57692871 171.79023438 331.84135742 172.26171875 331.08349609 C187.77948715 305.94318993 198.03925579 278.22820161 203.875 249.3125 C204.04016113 248.50474121 204.20532227 247.69698242 204.37548828 246.86474609 C214.42351676 195.46081966 201.18408435 140.315596 172.8125 96.8125 C171.52038199 94.96474504 170.20746265 93.1313762 168.875 91.3125 C168.11832031 90.27222656 167.36164063 89.23195313 166.58203125 88.16015625 C160.96944263 80.59044996 154.81929213 73.60592337 148.30371094 66.80419922 C146.98834782 65.43084504 145.6849915 64.0460176 144.3828125 62.66015625 C109.68636714 26.65548426 57.3930983 5.10342955 7.74259949 3.95010376 C-8.90051357 3.66393838 -24.79805681 4.85746786 -41.125 8.3125 Z " fill="#AEAEAE" transform="translate(259.125,0.6875)"/>
<path d="M0 0 C2.31 0 4.62 0 7 0 C7 57.42 7 114.84 7 174 C64.75 174 122.5 174 182 174 C182 176.31 182 178.62 182 181 C124.25 181 66.5 181 7 181 C7 238.09 7 295.18 7 354 C4.69 354 2.38 354 0 354 C0 296.91 0 239.82 0 181 C-56.76 181 -113.52 181 -172 181 C-172 178.69 -172 176.38 -172 174 C-115.24 174 -58.48 174 0 174 C0 116.58 0 59.16 0 0 Z " fill="#040302" transform="translate(254,34)"/>
<path d="M0 0 C1.08023438 0.19335938 2.16046875 0.38671875 3.2734375 0.5859375 C20.59276257 4.08616855 37.5848684 10.4167715 53 19 C54.61068359 19.87978516 54.61068359 19.87978516 56.25390625 20.77734375 C63.21517405 24.6980578 69.66648181 29.13725527 76 34 C76.83660156 34.63035156 77.67320312 35.26070312 78.53515625 35.91015625 C115.41815036 64.78236431 140.41081928 108.65400196 146.1875 155.1875 C148.26245026 174.19504334 147.69188638 193.25312196 144 212 C143.80664062 213.08023438 143.61328125 214.16046875 143.4140625 215.2734375 C139.91383145 232.59276257 133.5832285 249.5848684 125 265 C124.41347656 266.07378906 123.82695312 267.14757812 123.22265625 268.25390625 C119.3019422 275.21517405 114.86274473 281.66648181 110 288 C109.36964844 288.83660156 108.73929687 289.67320312 108.08984375 290.53515625 C85.12749729 319.86855838 54.8499417 338.99464433 20 351 C19.27401611 351.26071289 18.54803223 351.52142578 17.80004883 351.79003906 C12.13263749 353.77728882 6.46491427 355.04555335 0.5625 356.125 C-0.31470703 356.29386719 -1.19191406 356.46273438 -2.09570312 356.63671875 C-47.09904001 365.06033523 -95.66644356 355.35897039 -133.578125 329.59375 C-137.11251459 327.14172546 -140.56730406 324.59186411 -144 322 C-144.89976562 321.32710938 -145.79953125 320.65421875 -146.7265625 319.9609375 C-175.13441002 297.7324405 -194.56666979 268.05812912 -206.23339844 234.22094727 C-206.73909371 232.75588041 -207.25773541 231.29520993 -207.79003906 229.83959961 C-209.93605866 223.80442563 -211.09299705 217.74923007 -212.125 211.4375 C-212.29386719 210.44814453 -212.46273437 209.45878906 -212.63671875 208.43945312 C-220.50932773 161.73070617 -210.56498585 113.61046187 -183.0625 74.8125 C-181.39759655 72.52427676 -179.70515761 70.2583312 -178 68 C-176.99066406 66.65035156 -176.99066406 66.65035156 -175.9609375 65.2734375 C-147.17096811 28.48007894 -103.19478235 3.57040877 -56.8125 -2.1875 C-37.80495666 -4.26245026 -18.74687804 -3.69188638 0 0 Z M-69 4 C-69.75023437 4.14453613 -70.50046875 4.28907227 -71.2734375 4.43798828 C-116.45759198 13.38563993 -156.42450299 42.09753315 -182 80 C-208.25743288 120.10119982 -217.00140259 167.33650354 -207.55566406 214.35742188 C-197.86037698 260.4654128 -169.94293666 300.51495494 -130.96582031 326.72509766 C-113.04389739 338.34808344 -93.80400203 346.32971383 -73 351 C-71.9469165 351.23759033 -71.9469165 351.23759033 -70.87255859 351.47998047 C-24.83663701 361.6748246 21.13410493 351.77201134 61.1484375 327.828125 C98.54974055 303.85030332 124.79841836 267.54406486 137 225 C137.2784375 224.05511719 137.556875 223.11023438 137.84375 222.13671875 C144.72492064 196.4552069 145.22790418 169.02117268 140 143 C139.83371094 142.17097168 139.66742188 141.34194336 139.49609375 140.48779297 C129.91807631 94.66407436 101.59784135 55.24921538 62.96142578 29.27490234 C47.4917353 19.21979608 30.71112901 12.05949083 13 7 C12.03191406 6.7215625 11.06382812 6.443125 10.06640625 6.15625 C7.05702898 5.36752086 4.03860342 4.66801315 1 4 C0.05664795 3.79044678 0.05664795 3.79044678 -0.90576172 3.57666016 C-23.12696676 -1.15865563 -46.78727219 -0.39470565 -69 4 Z " fill="#ABACAA" transform="translate(293,33)"/>
</svg>
